Coordinates
version=1
nRows=14
nColumns=46
inDegrees=yes

Units are S.I. units (second, meters, Newtons, ...)
Angles are in degrees.

endheader
time	pelvis_tilt	pelvis_list	pelvis_rotation	pelvis_tx	pelvis_ty	pelvis_tz	bb_angle	bb_tx	bb_ty	bb_tz	hip_flexion_r	hip_adduction_r	hip_rotation_r	knee_angle_r	knee_angle_r_beta	ankle_angle_r	subtalar_angle_r	mtp_angle_r	crank_angle_r	hip_flexion_l	hip_adduction_l	hip_rotation_l	knee_angle_l	knee_angle_l_beta	ankle_angle_l	subtalar_angle_l	mtp_angle_l	crank_angle_l	lumbar_extension	lumbar_bending	lumbar_rotation	arm_flex_r	arm_add_r	arm_rot_r	elbow_flex_r	pro_sup_r	wrist_flex_r	wrist_dev_r	arm_flex_l	arm_add_l	arm_rot_l	elbow_flex_l	pro_sup_l	wrist_flex_l	wrist_dev_l
      2.50000000	     -9.66037391	     -4.23406935	     -4.75396238	      0.10194299	      1.16219956	     -0.24904265	      0.00000000	      0.50000000	      0.00000000	      0.25000000	     68.16067829	     -2.19254697	     -4.99497870	     71.87768770	      1.25450231	     26.59927205	     -1.23149926	      0.00000000	      0.00000000	     58.91200286	    -21.18125073	     -7.86904329	     80.06526632	      1.39740251	    -28.59926867	     -4.77512659	      0.00000000	      0.00000000	    -61.47697506	      2.61904834	      3.82709328	     89.72484395	     -0.14728021	     25.40227012	     39.52265928	     19.71907428	      0.00000000	      0.00000000	     89.75613845	     -7.17347507	     28.62504555	     32.45508316	     18.16628985	      0.00000000	      0.00000000
      2.50500000	     -9.61934554	     -3.81053329	     -4.52080406	      0.10143119	      1.16088483	     -0.24818757	      0.00000000	      0.50000000	      0.00000000	      0.25000000	     67.39838254	     -2.47449410	     -4.81888683	     70.42921659	      1.22922172	     26.09288107	     -1.06873974	      0.00000000	      0.00000000	     59.72360606	    -21.15332746	     -7.92558071	     81.66076771	      1.42524927	    -28.41408142	     -4.75639279	      0.00000000	      0.00000000	    -61.41780173	      2.34502605	      3.33044796	     89.71567220	     -0.25579622	     25.34277980	     39.55114922	     19.72394380	      0.00000000	      0.00000000	     89.76088912	     -7.09155387	     28.65793915	     32.53321442	     18.18584921	      0.00000000	      0.00000000
      2.51000000	     -9.70259985	     -3.78277930	     -4.26245432	      0.10104192	      1.15936583	     -0.24751933	      0.00000000	      0.50000000	      0.00000000	      0.25000000	     66.61978270	     -2.59505474	     -5.06700437	     68.86062789	      1.20184468	     25.26007731	     -1.01242340	      0.00000000	      0.00000000	     60.86409647	    -21.40559711	     -7.59284090	     83.44739609	      1.45643181	    -27.48135604	     -4.65288187	      0.00000000	      0.00000000	    -61.28885762	      2.53766400	      3.26466119	     89.71213561	     -0.19645386	     25.31986345	     39.58122869	     19.73690553	      0.00000000	      0.00000000	     89.75599679	     -7.27792723	     28.63355618	     32.71516348	     18.23116858	      0.00000000	      0.00000000
      2.51500000	     -9.85106155	     -3.74402027	     -3.92717672	      0.10065924	      1.15773784	     -0.24674783	      0.00000000	      0.50000000	      0.00000000	      0.25000000	     65.87143573	     -2.73834235	     -5.33214950	     67.24926632	      1.17372112	     24.51616657	     -1.25329634	      0.00000000	      0.00000000	     62.12859116	    -21.58573310	     -7.13028946	     85.22608419	      1.48747578	    -26.67113387	     -4.04088114	      0.00000000	      0.00000000	    -61.07926614	      2.65466154	      3.04240903	     89.70500824	     -0.15785344	     25.24863748	     39.56523100	     19.75600784	      0.00000000	      0.00000000	     89.75320439	     -7.42618963	     28.67215300	     33.01435867	     18.31751983	      0.00000000	      0.00000000
      2.52000000	     -9.91008336	     -3.33639708	     -3.59165973	      0.10049292	      1.15669364	     -0.24596067	      0.00000000	      0.50000000	      0.00000000	      0.25000000	     65.05044898	     -3.09349761	     -5.23764319	     65.66314914	      1.14603815	     23.76014537	     -1.12482760	      0.00000000	      0.00000000	     63.01727169	    -21.52961768	     -7.18867644	     86.80599175	      1.51505037	    -25.86897285	     -4.07229901	      0.00000000	      0.00000000	    -60.94677223	      2.52573959	      2.58269731	     89.69505957	     -0.24496070	     25.17660583	     39.56577098	     19.76588302	      0.00000000	      0.00000000	     89.75494953	     -7.43062750	     28.70670583	     33.13299694	     18.35133348	      0.00000000	      0.00000000
      2.52500000	    -10.01463115	     -3.17133533	     -3.17511256	      0.10035362	      1.15547967	     -0.24508209	      0.00000000	      0.50000000	      0.00000000	      0.25000000	     64.21047812	     -3.34778164	     -5.36917937	     64.08359146	      1.11846967	     22.91000488	     -1.32264961	      0.00000000	      0.00000000	     64.14784362	    -21.60290439	     -6.87879595	     88.49417941	      1.54451480	    -24.77378679	     -3.45990119	      0.00000000	      0.00000000	    -60.79113485	      2.59318138	      2.22053465	     89.68535001	     -0.21157521	     25.11088219	     39.51998845	     19.78844009	      0.00000000	      0.00000000	     89.75326859	     -7.58928706	     28.75546615	     33.40807575	     18.42704479	      0.00000000	      0.00000000
      2.53000000	    -10.10278291	     -2.82521562	     -2.71512576	      0.10029147	      1.15459588	     -0.24416562	      0.00000000	      0.50000000	      0.00000000	      0.25000000	     63.34659666	     -3.72354010	     -5.32458554	     62.50599235	      1.09093537	     22.08950220	     -1.34451014	      0.00000000	      0.00000000	     65.13403502	    -21.50552281	     -6.74932200	     90.04898126	      1.57165121	    -23.73436842	     -2.89466487	      0.00000000	      0.00000000	    -60.64291700	      2.58385313	      1.73222437	     89.67348964	     -0.22640141	     25.02201920	     39.45266747	     19.81723468	      0.00000000	      0.00000000	     89.75274948	     -7.71173741	     28.86273088	     33.63569783	     18.49798268	      0.00000000	      0.00000000
      2.53500000	    -10.15857378	     -2.29493184	     -2.27975120	      0.10036195	      1.15394315	     -0.24304574	      0.00000000	      0.50000000	      0.00000000	      0.25000000	     62.47029340	     -4.17035807	     -5.06357832	     61.00535960	      1.06474439	     21.38301474	     -1.09406431	      0.00000000	      0.00000000	     65.97598753	    -21.37721772	     -6.91616084	     91.49831979	      1.59694694	    -23.16930338	     -2.87526222	      0.00000000	      0.00000000	    -60.52103609	      2.30465951	      1.08121449	     89.65710635	     -0.39572845	     24.94139831	     39.44832297	     19.82254716	      0.00000000	      0.00000000	     89.75601371	     -7.60596040	     28.92630264	     33.72689234	     18.52089994	      0.00000000	      0.00000000
      2.54000000	    -10.21665593	     -1.93849466	     -1.68922943	      0.10058162	      1.15357915	     -0.24242561	      0.00000000	      0.50000000	      0.00000000	      0.25000000	     61.46943391	     -4.75619152	     -5.27277648	     59.38447561	      1.03645462	     20.35666141	     -1.17259246	      0.00000000	      0.00000000	     66.87230061	    -21.12103625	     -6.76757386	     92.95856564	      1.62243304	    -21.70557832	     -2.30660837	      0.00000000	      0.00000000	    -60.45465117	      2.43861360	      0.62111144	     89.65258174	     -0.41764168	     24.88841065	     39.36824783	     19.83913794	      0.00000000	      0.00000000	     89.75577401	     -7.74683386	     29.00829921	     33.96507659	     18.57994640	      0.00000000	      0.00000000
      2.54500000	    -10.26037942	     -1.57969147	     -1.14399358	      0.10085676	      1.15329937	     -0.24157058	      0.00000000	      0.50000000	      0.00000000	      0.25000000	     60.46538740	     -5.25031885	     -5.31771576	     57.86697738	      1.00996928	     19.48188660	     -1.14700750	      0.00000000	      0.00000000	     67.77922241	    -20.98701867	     -6.60622841	     94.40211719	      1.64762777	    -20.42288935	     -1.17995773	      0.00000000	      0.00000000	    -60.39094961	      2.43958373	      0.00520756	     89.64033531	     -0.38571925	     24.83191872	     39.23826255	     19.87921600	      0.00000000	      0.00000000	     89.75527726	     -7.93635691	     29.20518222	     34.29535976	     18.66759221	      0.00000000	      0.00000000
      2.55000000	    -10.35918251	     -1.11626625	     -0.71800367	      0.10116871	      1.15326947	     -0.24068619	      0.00000000	      0.50000000	      0.00000000	      0.25000000	     59.52078709	     -5.73532798	     -5.25250393	     56.33745656	      0.98327411	     18.53216884	     -0.88750563	      0.00000000	      0.00000000	     68.59961338	    -20.84850861	     -6.72127870	     95.71179062	      1.67048588	    -19.38995391	     -0.97849958	      0.00000000	      0.00000000	    -60.29407133	      2.25978211	     -0.51874446	     89.62685642	     -0.50893952	     24.76588067	     39.17438781	     19.90469205	      0.00000000	      0.00000000	     89.75389040	     -7.99420373	     29.37011397	     34.53067326	     18.72727621	      0.00000000	      0.00000000
      2.55500000	    -10.45916727	     -0.79329031	     -0.35201150	      0.10168926	      1.15315260	     -0.23981478	      0.00000000	      0.50000000	      0.00000000	      0.25000000	     58.52933049	     -6.09002233	     -5.37743895	     54.78272222	      0.95613888	     17.65938255	     -0.89800597	      0.00000000	      0.00000000	     69.51186256	    -20.86592033	     -6.63936686	     97.08443753	      1.69444309	    -18.13748337	     -0.24765681	      0.00000000	      0.00000000	    -60.20438386	      2.15794355	     -0.97234147	     89.61629015	     -0.54051794	     24.76438616	     39.04237560	     19.95125286	      0.00000000	      0.00000000	     89.75360258	     -8.11982853	     29.64274769	     34.76950319	     18.79640727	      0.00000000	      0.00000000
      2.56000000	    -10.61223768	     -0.26859276	      0.08133907	      0.10220472	      1.15342854	     -0.23887255	      0.00000000	      0.50000000	      0.00000000	      0.25000000	     57.62156704	     -6.62405497	     -5.17495049	     53.34130405	      0.93098138	     16.63869886	     -0.45456445	      0.00000000	      0.00000000	     70.36282447	    -20.75069134	     -6.86668609	     98.27282031	      1.71518428	    -17.29425070	     -0.00220740	      0.00000000	      0.00000000	    -60.07340089	      1.98576652	     -1.50844535	     89.59907282	     -0.68735779	     24.73181347	     38.97722859	     19.96722420	      0.00000000	      0.00000000	     89.75628265	     -8.05531692	     29.77861411	     34.87895783	     18.82593732	      0.00000000	      0.00000000
      2.56500000	    -10.66632779	      0.12391581	      0.59506906	      0.10276314	      1.15369345	     -0.23790317	      0.00000000	      0.50000000	      0.00000000	      0.25000000	     56.60191771	     -7.15745016	     -5.28994397	     51.93532683	      0.90644245	     15.70383851	     -0.41541712	      0.00000000	      0.00000000	     71.21554545	    -20.56411956	     -6.71343269	     99.50870492	      1.73675454	    -15.94836842	      1.27006761	      0.00000000	      0.00000000	    -60.01729078	      1.88893159	     -2.09258239	     89.58943388	     -0.76412717	     24.80786504	     38.75299589	     20.01528547	      0.00000000	      0.00000000	     89.75820801	     -8.08039426	     30.05089671	     35.05557954	     18.88606390	      0.00000000	      0.00000000
